<?xml version="1.0" encoding="UTF-8"?>
<svg version="1.1" xmlns="http://www.w3.org/2000/svg" width="256" height="256">
<path d="M0 0 C1.15178741 0.00456207 1.15178741 0.00456207 2.32684326 0.00921631 C13.88381463 0.07685368 24.65650928 0.81821798 35.6875 4.4375 C37.09103624 4.85453569 38.49468506 5.27119264 39.8984375 5.6875 C56.22504598 10.77539597 70.63153602 19.51238491 83.6875 30.4375 C84.50605469 31.10394531 85.32460937 31.77039063 86.16796875 32.45703125 C92.13324927 37.49825799 96.92886949 43.26575202 101.6875 49.4375 C102.35652344 50.27925781 103.02554688 51.12101562 103.71484375 51.98828125 C114.39178018 65.92115472 121.03988127 81.59471813 125.6875 98.4375 C125.89141357 99.15462158 126.09532715 99.87174316 126.30541992 100.6105957 C128.45626535 109.4668484 128.12915291 118.6930177 128.125 127.75 C128.12540283 128.64455902 128.12580566 129.53911804 128.1262207 130.46078491 C128.09097776 144.01792528 127.40791581 156.59662907 122.6875 169.4375 C122.40342285 170.23800781 122.1193457 171.03851563 121.82666016 171.86328125 C115.33769009 189.72993054 105.49586769 204.51009565 92.6875 218.4375 C92.07390625 219.12199219 91.4603125 219.80648437 90.828125 220.51171875 C78.90359942 233.17414814 62.79069072 242.89020336 46.75 249.3125 C46.10844971 249.57442139 45.46689941 249.83634277 44.8059082 250.10620117 C30.95901421 255.32074371 16.88439399 257.1058524 2.17358398 256.95898438 C-0.37807817 256.93747405 -2.92693582 256.95896427 -5.47851562 256.984375 C-39.58389468 257.0426047 -70.27483799 241.04305099 -94.3046875 217.484375 C-96.07772309 215.5331875 -97.70078654 213.52468642 -99.3125 211.4375 C-99.91892334 210.6647876 -99.91892334 210.6647876 -100.53759766 209.87646484 C-109.88531409 197.89160927 -116.98763 185.76496292 -122.125 171.4375 C-122.54217285 170.28278198 -122.54217285 170.28278198 -122.96777344 169.10473633 C-127.47231685 155.87504047 -128.86710323 143.03749809 -128.75 129.1875 C-128.74695862 128.42158539 -128.74391724 127.65567078 -128.74078369 126.86654663 C-128.67127633 115.01090754 -127.96205432 103.80005877 -124.3125 92.4375 C-124.10351074 91.76348145 -123.89452148 91.08946289 -123.67919922 90.39501953 C-117.17952251 69.98067914 -105.92018594 52.97179288 -91.3125 37.4375 C-90.7865625 36.84710938 -90.260625 36.25671875 -89.71875 35.6484375 C-67.16643746 11.37018267 -32.38342153 -0.27311848 0 0 Z " fill="#000000" transform="translate(128.3125,-0.4375)"/>
<path d="M0 0 C0.75643295 0.00142502 1.51286591 0.00285004 2.29222107 0.00431824 C3.57849144 -0.00029671 3.57849144 -0.00029671 4.89074707 -0.00500488 C5.81785995 0.00218063 6.74497284 0.00936615 7.70018005 0.01676941 C8.64940842 0.01722763 9.59863678 0.01768585 10.57662964 0.01815796 C12.58486683 0.02118178 14.59310164 0.02907192 16.6013031 0.04142761 C19.68708029 0.05968377 22.77255763 0.06193734 25.85838318 0.06169128 C27.80565142 0.06660633 29.75291761 0.07243459 31.70018005 0.07926941 C33.09388573 0.08093864 33.09388573 0.08093864 34.51574707 0.0826416 C35.37010849 0.08902145 36.22446991 0.09540131 37.10472107 0.10197449 C38.23817711 0.10769218 38.23817711 0.10769218 39.39453125 0.11352539 C41.1337738 0.24723816 41.1337738 0.24723816 42.1337738 1.24723816 C42.20649122 3.60037371 42.21748248 5.95557484 42.1962738 8.30973816 C42.18725037 9.60008972 42.17822693 10.89044128 42.16893005 12.21989441 C42.15732849 13.21891785 42.14572693 14.21794128 42.1337738 15.24723816 C42.99701767 15.23058357 42.99701767 15.23058357 43.87770081 15.21359253 C49.87989242 15.10277794 55.8817924 15.0274797 61.88475037 14.97257996 C64.12347725 14.94747122 66.36212245 14.9133773 68.60057068 14.87004089 C71.82278115 14.80923097 75.04390574 14.78099139 78.2665863 14.75895691 C79.26368622 14.73315048 80.26078613 14.70734406 81.2881012 14.68075562 C82.22862335 14.68037796 83.16914551 14.68000031 84.13816833 14.67961121 C84.95979462 14.66850815 85.7814209 14.65740509 86.62794495 14.64596558 C90.32657285 15.53344979 92.91073943 17.2077327 95.1337738 20.24723816 C95.98285923 23.29369999 95.92471185 26.21784788 95.86253357 29.36442566 C95.86822861 30.27395996 95.87392365 31.18349426 95.87979126 32.12059021 C95.89089001 35.12193333 95.85884475 38.12108925 95.82518005 41.12223816 C95.82160258 43.21061446 95.82024561 45.29899565 95.8210144 47.38737488 C95.81632409 51.76219447 95.79149113 56.13627609 95.75120544 60.51091003 C95.70023527 66.11661134 95.68876267 71.72150194 95.69104099 77.32740784 C95.69022491 81.63916249 95.67376581 85.95074016 95.65203667 90.26243591 C95.64249496 92.32927613 95.63657872 94.39613639 95.63435555 96.46299744 C95.62784482 99.35236202 95.60157121 102.24087038 95.56956482 105.13005066 C95.57160416 106.40975739 95.57160416 106.40975739 95.57368469 107.71531677 C95.49843219 112.36503869 95.15860425 115.47477244 92.1337738 119.24723816 C89.48761356 120.57031828 87.4938468 120.38222894 84.52931213 120.39440918 C82.74164429 120.40514214 82.74164429 120.40514214 80.91786194 120.41609192 C79.6035318 120.41878082 78.28920166 120.42146973 76.93504333 120.42424011 C75.54223968 120.4305039 74.14943771 120.43715062 72.75663757 120.44415283 C68.9673579 120.46156853 65.17809085 120.4721158 61.38878107 120.48035836 C59.02249462 120.48550655 56.65621211 120.49158232 54.28992844 120.49786949 C46.88957768 120.51692184 39.48923692 120.53115375 32.08886635 120.53948146 C23.5401531 120.54925977 14.99169838 120.57559438 6.44307625 120.61598235 C-0.16079585 120.64611427 -6.76459372 120.66094748 -13.36853325 120.66426247 C-17.31467724 120.66661602 -21.26054506 120.67561571 -25.20661545 120.70072365 C-28.91833775 120.72395905 -32.62960115 120.72825626 -36.34137726 120.71796227 C-38.35404377 120.71722878 -40.36668674 120.73635119 -42.3792572 120.75602722 C-43.57667542 120.7490834 -44.77409363 120.74213959 -46.00779724 120.73498535 C-47.04866926 120.7373737 -48.08954128 120.73976206 -49.16195488 120.74222279 C-52.60890793 120.11129912 -53.78434636 119.02796005 -55.8662262 116.24723816 C-56.37238407 114.26974583 -56.37238407 114.26974583 -56.38088989 112.15533447 C-56.39361435 111.34930283 -56.40633881 110.54327118 -56.41944885 109.71281433 C-56.41292297 108.83737976 -56.40639709 107.96194519 -56.39967346 107.0599823 C-56.40828903 106.13108688 -56.4169046 105.20219147 -56.42578125 104.24514771 C-56.44848772 101.17394664 -56.4416934 98.10365463 -56.43263245 95.03239441 C-56.43786616 92.897743 -56.44414172 90.76309392 -56.45141602 88.62844849 C-56.46182906 84.15369285 -56.45724596 79.67925503 -56.44264221 75.20451355 C-56.42545841 69.46969883 -56.44894052 63.73588636 -56.48413181 58.00118351 C-56.50609184 53.59250242 -56.50466757 49.18406162 -56.4963665 44.77534294 C-56.49554612 42.66102945 -56.50242602 40.54669846 -56.51713753 38.43243599 C-56.53455604 35.47562696 -56.52006264 32.52062484 -56.49732971 29.56388855 C-56.50902191 28.69047821 -56.52071411 27.81706787 -56.53276062 26.91719055 C-56.46554507 22.62071785 -56.24357814 20.76181274 -53.63191223 17.20042419 C-50.70500988 15.13338378 -49.50083418 14.63221649 -45.98414612 14.67961121 C-45.04354843 14.67998886 -44.10295074 14.68036652 -43.1338501 14.68075562 C-41.6304583 14.71946526 -41.6304583 14.71946526 -40.09669495 14.75895691 C-39.06055557 14.76603165 -38.0244162 14.77310638 -36.95687866 14.78039551 C-33.65508623 14.80833209 -30.35500404 14.87107186 -27.0537262 14.93473816 C-24.81221427 14.95982186 -22.5706757 14.9826349 -20.32911682 15.00309753 C-14.84090539 15.05815609 -9.35368799 15.14177535 -3.8662262 15.24723816 C-3.88942932 14.33200378 -3.91263245 13.41676941 -3.9365387 12.47380066 C-3.95458557 11.28528503 -3.97263245 10.09676941 -3.9912262 8.87223816 C-4.01442932 7.68887878 -4.03763245 6.50551941 -4.0615387 5.28630066 C-3.84898427 1.97895379 -3.50359045 0.46415662 0 0 Z " fill="#EEEEEE" transform="translate(108.86622619628906,67.75276184082031)"/>
<path d="M0 0 C2.62843859 2.62843859 4.74459889 5.24801584 7 8.1875 C20.72115448 24.93083802 40.43753058 30.72796898 61 34 C61.09796875 34.60328125 61.1959375 35.2065625 61.296875 35.828125 C61.98749592 39.51937477 62.60478386 42.39985697 64.6875 45.5625 C67.98412461 47.61175314 70.18523058 47.46848046 74 47 C76.94572012 46.3160651 76.94572012 46.3160651 79 44 C79.70045627 41.56509267 79.70045627 41.56509267 80.13671875 38.8671875 C80.30260498 37.9582373 80.46849121 37.04928711 80.6394043 36.11279297 C80.75840088 35.41557129 80.87739746 34.71834961 81 34 C81.6077124 33.89042969 82.2154248 33.78085938 82.84155273 33.66796875 C104.83373293 29.59143012 122.47871213 23.47291785 137.30859375 5.98046875 C138.78975298 4.24617838 140.38730106 2.61269894 142 1 C142 21.46 142 41.92 142 63 C95.14 63 48.28 63 0 63 C0 42.21 0 21.42 0 0 Z " fill="#050505" transform="translate(57,105)"/>
<path d="M0 0 C1.1596376 -0.00426498 2.31927521 -0.00852997 3.51405334 -0.01292419 C4.7977179 -0.01247101 6.08138245 -0.01201782 7.40394592 -0.0115509 C8.76043796 -0.01454086 10.11692914 -0.01794301 11.47341919 -0.02172852 C15.16759585 -0.0305894 18.86174937 -0.0329075 22.55593562 -0.0335443 C25.63512149 -0.03449169 28.71430192 -0.03816801 31.7934857 -0.0417164 C39.05556898 -0.0498689 46.31763985 -0.05229991 53.57972717 -0.05158997 C61.08180598 -0.05098896 68.58381293 -0.06154339 76.08587354 -0.07733363 C82.51729769 -0.0903902 88.94869829 -0.09577466 95.3801356 -0.09513456 C99.22553534 -0.09487901 103.07087126 -0.09776113 106.91625786 -0.10831261 C110.53183518 -0.11796201 114.14728726 -0.11809465 117.76286888 -0.11079597 C119.72818479 -0.10924415 121.69350059 -0.11761888 123.65879822 -0.12623596 C124.82125565 -0.12204147 125.98371307 -0.11784698 127.18139648 -0.11352539 C128.19591353 -0.11407016 129.21043058 -0.11461493 130.25569057 -0.1151762 C132.65419006 0.13371277 132.65419006 0.13371277 134.65419006 2.13371277 C134.39223249 12.61201585 126.74845781 21.21475642 119.65419006 28.13371277 C107.89050376 39.03985932 91.71474908 45.71240441 75.62684631 46.23136902 C74.97586975 46.19914246 74.32489319 46.16691589 73.65419006 46.13371277 C73.40669006 45.04058777 73.15919006 43.94746277 72.90419006 42.82121277 C71.92838017 39.24597096 71.92838017 39.24597096 70.09169006 37.19621277 C66.29622364 35.54177869 62.71428234 35.33512844 58.65419006 36.13371277 C55.2884776 39.07871118 54.1575673 41.72916191 53.65419006 46.13371277 C36.8986962 46.73596415 20.31575609 38.82389489 7.58387756 28.44621277 C1.30926214 22.59365668 -6.08736184 13.21652529 -6.53330994 4.44621277 C-6.23613587 -0.80386236 -4.80212354 0.0079354 0 0 Z " fill="#030303" transform="translate(64.34580993652344,87.86628723144531)"/>
<path d="M0 0 C46.86 0 93.72 0 142 0 C142 3.3 142 6.6 142 10 C140.27445953 11.72554047 137.96908892 11.12985278 135.6162262 11.13371277 C134.44817444 11.13797775 133.28012268 11.14224274 132.07667542 11.14663696 C130.78366013 11.14618378 129.49064484 11.14573059 128.15844727 11.14526367 C126.79210315 11.14825362 125.42575987 11.15165577 124.05941772 11.15544128 C120.33838245 11.16430224 116.61737015 11.16662027 112.89632535 11.16725707 C109.79477154 11.16820445 106.69322314 11.17188076 103.59167141 11.17542917 C96.27685044 11.1835817 88.96204179 11.18601267 81.6472168 11.18530273 C74.09060663 11.18470173 66.53406781 11.19525619 58.9774757 11.2110464 C52.49934284 11.22410287 46.02123335 11.22948743 39.54308742 11.22884732 C35.66974219 11.22859178 31.79646031 11.23147405 27.92312813 11.24202538 C24.28128627 11.25167462 20.63956875 11.25180753 16.99772263 11.24450874 C15.01809339 11.24295688 13.03846424 11.25133176 11.05885315 11.25994873 C9.88798157 11.25575424 8.71710999 11.25155975 7.51075745 11.24723816 C6.48886605 11.24778293 5.46697466 11.24832769 4.41411686 11.24888897 C2 11 2 11 0 9 C0 6.03 0 3.06 0 0 Z " fill="#0A0A0A" transform="translate(57,172)"/>
<path d="M0 0 C11.88 0 23.76 0 36 0 C36 3.63 36 7.26 36 11 C31.03377651 11.02465098 26.06758834 11.04283649 21.10131836 11.05493164 C19.41055684 11.0599719 17.71979971 11.06680405 16.02905273 11.07543945 C13.60399293 11.08751857 11.17899056 11.09323123 8.75390625 11.09765625 C7.61327477 11.10539818 7.61327477 11.10539818 6.44960022 11.11329651 C4.6326743 11.11349238 2.81586873 11.06197277 1 11 C0.67 10.67 0.34 10.34 0 10 C0 6.7 0 3.4 0 0 Z " fill="#131313" transform="translate(110,73)"/>
<path d="M0 0 C3.4375 0.1875 3.4375 0.1875 4.4375 1.1875 C4.56413091 4.01166382 4.62270548 6.80044793 4.625 9.625 C4.63724609 10.41455078 4.64949219 11.20410156 4.66210938 12.01757812 C4.66737279 14.07557435 4.55956285 16.13312009 4.4375 18.1875 C2.4375 20.1875 2.4375 20.1875 -0.5625 20.4375 C-3.5625 20.1875 -3.5625 20.1875 -5.5625 18.1875 C-5.76102102 15.47827199 -5.84089477 12.89446821 -5.8125 10.1875 C-5.82023437 9.45015625 -5.82796875 8.7128125 -5.8359375 7.953125 C-5.80802714 0.30568564 -5.80802714 0.30568564 0 0 Z " fill="#0A0A0A" transform="translate(128.5625,127.8125)"/>
</svg>
